<svg xmlns="http://www.w3.org/2000/svg" viewBox="0 0 512 512">
  <rect width="512" height="512" rx="112" fill="#25d366"/>
  <circle cx="256" cy="256" r="172" fill="#dcf8c6"/>
  <path d="M181 316l17-60c-13-23-18-43-18-62 0-73 59-132 132-132s132 59 132 132-59 132-132 132c-20 0-40-5-59-14l-72 4z" fill="#fff"/>
  <path d="M300 286c-37 0-74-38-91-67-12-21-2-33 8-42 6-5 14-5 20 0l13 12c6 6 6 15 0 21l-7 8c10 18 26 34 44 43l7-7c6-6 15-6 21 0l13 13c5 6 5 14 0 20-8 9-20 19-28 19z" fill="#25d366"/>
</svg>
